<?xml version="1.0" encoding="UTF-8" standalone="yes"?>
<svg xmlns="http://www.w3.org/2000/svg" xmlns:xlink="http://www.w3.org/1999/xlink" width="189.753px" height="183.736px" version="1.1" viewBox="-236.642 1071.549 94.876 91.868">
  <!--
	Exported with Concepts: Smarter Sketching
	Version: 2463 on iOS 17.1
	https://concepts.app/
	-->
  <title>C70905A8-DADC-4A52-8E4C-25E8DC22532B</title>
  <desc>Drawing exported from Concepts: Smarter Sketching</desc>
  <defs></defs>
  <g id="新規レイヤー_5" opacity="1.000">
    <path id="STROKE_30dd88b2-2150-4016-bafa-ad96bce8d9c5" opacity="0.910" fill="none" stroke="#3298bc" stroke-width="9.536" stroke-opacity="1.000" stroke-linecap="round" stroke-linejoin="round" d="M -167.947 1096.788 Q -167.945 1097.009 -167.949 1097.230 Q -167.952 1097.450 -167.962 1097.671 Q -167.971 1097.891 -167.985 1098.112 Q -168.000 1098.332 -168.020 1098.551 Q -168.039 1098.771 -168.065 1098.990 Q -168.090 1099.209 -168.120 1099.427 Q -168.151 1099.646 -168.187 1099.863 Q -168.223 1100.081 -168.264 1100.297 Q -168.305 1100.514 -168.352 1100.730 Q -168.398 1100.945 -168.450 1101.159 Q -168.502 1101.374 -168.559 1101.587 Q -168.616 1101.800 -168.678 1102.012 Q -168.740 1102.223 -168.807 1102.434 Q -168.875 1102.644 -168.947 1102.853 Q -169.020 1103.061 -169.097 1103.268 Q -169.175 1103.475 -169.258 1103.681 Q -169.340 1103.886 -169.428 1104.089 Q -169.516 1104.292 -169.609 1104.494 Q -169.701 1104.695 -169.799 1104.894 Q -169.897 1105.094 -169.999 1105.291 Q -170.102 1105.488 -170.209 1105.682 Q -170.316 1105.877 -170.428 1106.069 Q -170.541 1106.262 -170.657 1106.452 Q -170.774 1106.642 -170.896 1106.829 Q -171.017 1107.016 -171.143 1107.201 Q -171.269 1107.385 -171.400 1107.567 Q -171.531 1107.749 -171.666 1107.928 Q -171.801 1108.107 -171.940 1108.283 Q -172.080 1108.460 -172.224 1108.633 Q -172.367 1108.806 -172.516 1108.976 Q -172.664 1109.146 -172.816 1109.313 Q -172.968 1109.480 -173.124 1109.644 Q -173.281 1109.807 -173.441 1109.967 Q -173.602 1110.128 -173.766 1110.285 Q -173.930 1110.442 -174.098 1110.595 Q -174.266 1110.749 -174.438 1110.898 Q -174.610 1111.048 -174.786 1111.195 Q -174.962 1111.341 -175.141 1111.484 Q -175.320 1111.626 -175.503 1111.765 Q -175.685 1111.904 -175.871 1112.039 Q -176.058 1112.174 -176.247 1112.305 Q -176.436 1112.437 -176.629 1112.564 Q -176.821 1112.691 -177.017 1112.814 Q -177.213 1112.938 -177.412 1113.057 Q -177.610 1113.176 -177.812 1113.291 Q -178.014 1113.406 -178.218 1113.518 Q -178.423 1113.629 -178.630 1113.735 Q -178.837 1113.842 -179.047 1113.945 Q -179.257 1114.047 -179.469 1114.146 Q -179.681 1114.244 -179.896 1114.338 Q -180.110 1114.432 -180.327 1114.522 Q -180.544 1114.611 -180.763 1114.697 Q -180.982 1114.782 -181.203 1114.863 Q -181.425 1114.943 -181.648 1115.020 Q -181.871 1115.096 -182.096 1115.168 Q -182.320 1115.240 -182.547 1115.307 Q -182.774 1115.374 -183.002 1115.437 Q -183.230 1115.499 -183.459 1115.557 Q -183.689 1115.615 -183.920 1115.669 Q -184.151 1115.722 -184.383 1115.771 Q -184.616 1115.820 -184.849 1115.864 Q -185.082 1115.908 -185.317 1115.948 Q -185.551 1115.987 -185.786 1116.022 Q -186.021 1116.057 -186.257 1116.087 Q -186.493 1116.117 -186.730 1116.142 Q -186.966 1116.168 -187.204 1116.188 Q -187.441 1116.209 -187.678 1116.225 Q -187.916 1116.241 -188.154 1116.252 Q -188.391 1116.263 -188.629 1116.269 Q -188.867 1116.275 -189.105 1116.277 Q -189.343 1116.279 -189.581 1116.275 Q -189.819 1116.272 -190.057 1116.264 Q -190.294 1116.256 -190.532 1116.243 Q -190.769 1116.231 -191.006 1116.213 Q -191.243 1116.196 -191.479 1116.173 Q -191.715 1116.151 -191.951 1116.124 Q -192.186 1116.097 -192.421 1116.065 Q -192.656 1116.034 -192.890 1115.997 Q -193.124 1115.961 -193.356 1115.919 Q -193.589 1115.878 -193.821 1115.832 Q -194.052 1115.786 -194.283 1115.736 Q -194.513 1115.685 -194.742 1115.630 Q -194.971 1115.575 -195.198 1115.515 Q -195.425 1115.455 -195.651 1115.391 Q -195.877 1115.326 -196.101 1115.257 Q -196.325 1115.188 -196.547 1115.115 Q -196.769 1115.041 -196.989 1114.963 Q -197.209 1114.885 -197.427 1114.802 Q -197.645 1114.720 -197.861 1114.632 Q -198.076 1114.545 -198.290 1114.454 Q -198.503 1114.362 -198.714 1114.266 Q -198.925 1114.171 -199.134 1114.070 Q -199.342 1113.970 -199.548 1113.866 Q -199.754 1113.761 -199.957 1113.653 Q -200.160 1113.544 -200.360 1113.431 Q -200.560 1113.318 -200.758 1113.201 Q -200.955 1113.084 -201.149 1112.963 Q -201.343 1112.841 -201.534 1112.716 Q -201.725 1112.591 -201.913 1112.461 Q -202.101 1112.332 -202.285 1112.199 Q -202.470 1112.066 -202.651 1111.929 Q -202.832 1111.792 -203.009 1111.651 Q -203.186 1111.510 -203.360 1111.365 Q -203.534 1111.221 -203.704 1111.073 Q -203.874 1110.924 -204.041 1110.773 Q -204.207 1110.621 -204.369 1110.465 Q -204.532 1110.310 -204.690 1110.151 Q -204.849 1109.992 -205.003 1109.830 Q -205.158 1109.668 -205.308 1109.502 Q -205.458 1109.337 -205.604 1109.168 Q -205.750 1108.999 -205.892 1108.827 Q -206.034 1108.655 -206.171 1108.480 Q -206.309 1108.305 -206.442 1108.127 Q -206.575 1107.949 -206.703 1107.768 Q -206.832 1107.587 -206.956 1107.403 Q -207.080 1107.220 -207.199 1107.033 Q -207.319 1106.847 -207.433 1106.658 Q -207.548 1106.469 -207.658 1106.277 Q -207.768 1106.086 -207.873 1105.892 Q -207.978 1105.698 -208.079 1105.501 Q -208.179 1105.305 -208.274 1105.106 Q -208.370 1104.908 -208.460 1104.707 Q -208.551 1104.506 -208.636 1104.303 Q -208.722 1104.101 -208.802 1103.896 Q -208.883 1103.691 -208.958 1103.484 Q -209.033 1103.278 -209.104 1103.070 Q -209.174 1102.861 -209.239 1102.651 Q -209.304 1102.441 -209.364 1102.230 Q -209.424 1102.018 -209.479 1101.805 Q -209.533 1101.592 -209.583 1101.378 Q -209.632 1101.164 -209.676 1100.949 Q -209.721 1100.733 -209.760 1100.517 Q -209.799 1100.300 -209.832 1100.083 Q -209.866 1099.865 -209.894 1099.647 Q -209.922 1099.428 -209.945 1099.209 Q -209.968 1098.990 -209.986 1098.771 Q -210.003 1098.551 -210.016 1098.330 Q -210.028 1098.110 -210.035 1097.889 Q -210.041 1097.669 -210.043 1097.448 Q -210.044 1097.226 -210.040 1097.005 Q -210.037 1096.784 -210.027 1096.563 Q -210.018 1096.341 -210.004 1096.120 Q -209.989 1095.899 -209.969 1095.678 Q -209.949 1095.457 -209.924 1095.236 Q -209.898 1095.015 -209.868 1094.795 Q -209.837 1094.574 -209.801 1094.354 Q -209.765 1094.135 -209.724 1093.915 Q -209.682 1093.696 -209.636 1093.477 Q -209.589 1093.259 -209.538 1093.041 Q -209.486 1092.823 -209.429 1092.606 Q -209.372 1092.390 -209.309 1092.174 Q -209.247 1091.958 -209.180 1091.744 Q -209.112 1091.530 -209.040 1091.316 Q -208.967 1091.103 -208.889 1090.891 Q -208.812 1090.680 -208.729 1090.469 Q -208.646 1090.259 -208.559 1090.051 Q -208.471 1089.842 -208.378 1089.635 Q -208.286 1089.428 -208.188 1089.224 Q -208.090 1089.019 -207.988 1088.816 Q -207.885 1088.613 -207.778 1088.412 Q -207.671 1088.211 -207.559 1088.012 Q -207.447 1087.814 -207.330 1087.617 Q -207.213 1087.421 -207.092 1087.227 Q -206.970 1087.033 -206.844 1086.842 Q -206.718 1086.650 -206.588 1086.461 Q -206.457 1086.272 -206.322 1086.086 Q -206.187 1085.900 -206.048 1085.717 Q -205.908 1085.534 -205.764 1085.354 Q -205.621 1085.173 -205.473 1084.996 Q -205.325 1084.818 -205.173 1084.644 Q -205.021 1084.470 -204.864 1084.299 Q -204.708 1084.128 -204.548 1083.961 Q -204.388 1083.793 -204.224 1083.629 Q -204.059 1083.464 -203.891 1083.304 Q -203.723 1083.143 -203.552 1082.986 Q -203.380 1082.828 -203.204 1082.675 Q -203.029 1082.521 -202.850 1082.372 Q -202.671 1082.222 -202.488 1082.076 Q -202.306 1081.930 -202.120 1081.788 Q -201.934 1081.646 -201.745 1081.509 Q -201.556 1081.371 -201.363 1081.237 Q -201.171 1081.103 -200.975 1080.973 Q -200.780 1080.844 -200.581 1080.718 Q -200.383 1080.593 -200.181 1080.471 Q -199.980 1080.350 -199.775 1080.234 Q -199.571 1080.117 -199.364 1080.005 Q -199.157 1079.893 -198.948 1079.785 Q -198.738 1079.677 -198.526 1079.574 Q -198.314 1079.470 -198.099 1079.372 Q -197.885 1079.273 -197.668 1079.179 Q -197.452 1079.086 -197.233 1078.997 Q -197.014 1078.907 -196.793 1078.823 Q -196.572 1078.739 -196.349 1078.660 Q -196.126 1078.580 -195.902 1078.506 Q -195.677 1078.431 -195.450 1078.362 Q -195.224 1078.292 -194.996 1078.228 Q -194.768 1078.163 -194.538 1078.104 Q -194.309 1078.044 -194.078 1077.990 Q -193.847 1077.935 -193.615 1077.886 Q -193.383 1077.838 -193.149 1077.794 Q -192.916 1077.751 -192.681 1077.713 Q -192.447 1077.675 -192.211 1077.643 Q -191.976 1077.611 -191.740 1077.584 Q -191.504 1077.557 -191.267 1077.536 Q -191.030 1077.514 -190.792 1077.498 Q -190.555 1077.482 -190.317 1077.471 Q -190.079 1077.460 -189.841 1077.454 Q -189.603 1077.448 -189.365 1077.448 Q -189.126 1077.448 -188.888 1077.446 Q -188.650 1077.444 -188.412 1077.439 Q -188.174 1077.434 -187.936 1077.434 Q -187.698 1077.433 -187.460 1077.437 Q -187.222 1077.441 -186.985 1077.451 Q -186.747 1077.461 -186.511 1077.477 Q -186.274 1077.494 -186.038 1077.516 Q -185.802 1077.538 -185.567 1077.566 Q -185.332 1077.595 -185.098 1077.629 Q -184.864 1077.663 -184.632 1077.703 Q -184.399 1077.744 -184.168 1077.791 Q -183.936 1077.839 -183.706 1077.892 Q -183.477 1077.945 -183.248 1078.003 Q -183.020 1078.062 -182.793 1078.125 Q -182.566 1078.188 -182.341 1078.256 Q -182.115 1078.325 -181.892 1078.398 Q -181.668 1078.472 -181.446 1078.550 Q -181.225 1078.628 -181.005 1078.711 Q -180.785 1078.794 -180.568 1078.882 Q -180.350 1078.969 -180.134 1079.062 Q -179.919 1079.154 -179.706 1079.252 Q -179.493 1079.349 -179.282 1079.451 Q -179.071 1079.553 -178.863 1079.659 Q -178.654 1079.766 -178.449 1079.877 Q -178.243 1079.988 -178.040 1080.103 Q -177.837 1080.219 -177.637 1080.338 Q -177.437 1080.458 -177.240 1080.582 Q -177.043 1080.706 -176.849 1080.835 Q -176.655 1080.963 -176.464 1081.096 Q -176.273 1081.228 -176.085 1081.365 Q -175.898 1081.502 -175.713 1081.642 Q -175.529 1081.783 -175.348 1081.928 Q -175.167 1082.072 -174.989 1082.221 Q -174.812 1082.369 -174.638 1082.521 Q -174.464 1082.674 -174.294 1082.829 Q -174.124 1082.985 -173.958 1083.145 Q -173.791 1083.304 -173.629 1083.467 Q -173.466 1083.630 -173.308 1083.797 Q -173.149 1083.963 -172.995 1084.133 Q -172.840 1084.303 -172.690 1084.476 Q -172.540 1084.649 -172.394 1084.825 Q -172.247 1085.001 -172.105 1085.180 Q -171.964 1085.359 -171.826 1085.542 Q -171.689 1085.724 -171.555 1085.909 Q -171.422 1086.094 -171.294 1086.281 Q -171.165 1086.469 -171.041 1086.659 Q -170.917 1086.850 -170.797 1087.043 Q -170.678 1087.236 -170.563 1087.431 Q -170.448 1087.627 -170.338 1087.824 Q -170.228 1088.022 -170.123 1088.222 Q -170.017 1088.422 -169.917 1088.624 Q -169.816 1088.826 -169.721 1089.030 Q -169.625 1089.234 -169.534 1089.439 Q -169.444 1089.645 -169.358 1089.853 Q -169.273 1090.061 -169.192 1090.270 Q -169.111 1090.480 -169.036 1090.691 Q -168.960 1090.901 -168.890 1091.114 Q -168.819 1091.326 -168.754 1091.540 Q -168.689 1091.754 -168.629 1091.969 Q -168.569 1092.184 -168.514 1092.400 Q -168.459 1092.616 -168.409 1092.833 Q -168.360 1093.050 -168.315 1093.268 Q -168.271 1093.486 -168.232 1093.705 Q -168.193 1093.923 -168.159 1094.143 Q -168.125 1094.362 -168.097 1094.582 Q -168.068 1094.802 -168.045 1095.022 Q -168.022 1095.243 -168.005 1095.463 Q -167.987 1095.684 -167.974 1095.905 Q -167.962 1096.126 -167.955 1096.347 Q -167.948 1096.568 -167.947 1096.788 Z"></path>
    <path id="STROKE_ba4219af-5200-415d-8f5f-144c1156da18" opacity="0.910" fill="none" stroke="#3298bc" stroke-width="9.536" stroke-opacity="1.000" stroke-linecap="round" stroke-linejoin="round" d="M -147.654 1144.192 Q -147.647 1144.468 -147.651 1144.741 Q -147.654 1145.015 -147.669 1145.285 Q -147.683 1145.556 -147.708 1145.824 Q -147.732 1146.091 -147.767 1146.356 Q -147.803 1146.620 -147.848 1146.881 Q -147.894 1147.141 -147.950 1147.398 Q -148.006 1147.655 -148.073 1147.908 Q -148.139 1148.161 -148.216 1148.409 Q -148.293 1148.658 -148.380 1148.902 Q -148.467 1149.145 -148.565 1149.385 Q -148.662 1149.624 -148.770 1149.857 Q -148.878 1150.091 -148.996 1150.320 Q -149.114 1150.548 -149.242 1150.771 Q -149.370 1150.994 -149.508 1151.211 Q -149.646 1151.428 -149.794 1151.638 Q -149.942 1151.849 -150.100 1152.054 Q -150.258 1152.258 -150.425 1152.456 Q -150.593 1152.653 -150.770 1152.844 Q -150.948 1153.035 -151.135 1153.218 Q -151.322 1153.402 -151.519 1153.578 Q -151.715 1153.754 -151.921 1153.922 Q -152.127 1154.090 -152.343 1154.251 Q -152.558 1154.411 -152.782 1154.563 Q -153.007 1154.716 -153.241 1154.860 Q -153.474 1155.003 -153.717 1155.139 Q -153.959 1155.274 -154.211 1155.400 Q -154.462 1155.527 -154.722 1155.644 Q -154.982 1155.762 -155.251 1155.870 Q -155.520 1155.978 -155.797 1156.077 Q -156.074 1156.177 -156.359 1156.266 Q -156.645 1156.355 -156.938 1156.436 Q -157.232 1156.516 -157.533 1156.586 Q -157.835 1156.656 -158.144 1156.717 Q -158.453 1156.778 -158.770 1156.829 Q -159.087 1156.880 -159.412 1156.922 Q -159.736 1156.963 -160.068 1156.995 Q -160.400 1157.027 -160.739 1157.049 Q -161.078 1157.071 -161.424 1157.084 Q -161.770 1157.097 -162.123 1157.100 Q -162.476 1157.104 -162.835 1157.099 Q -163.195 1157.094 -163.561 1157.079 Q -163.927 1157.065 -164.299 1157.043 Q -164.671 1157.020 -165.050 1156.990 Q -165.428 1156.959 -165.812 1156.921 Q -166.197 1156.883 -166.587 1156.838 Q -166.977 1156.793 -167.373 1156.741 Q -167.768 1156.689 -168.169 1156.631 Q -168.570 1156.574 -168.977 1156.510 Q -169.383 1156.447 -169.794 1156.379 Q -170.205 1156.311 -170.621 1156.240 Q -171.037 1156.168 -171.458 1156.093 Q -171.878 1156.018 -172.303 1155.940 Q -172.728 1155.863 -173.158 1155.784 Q -173.587 1155.705 -174.020 1155.625 Q -174.453 1155.544 -174.890 1155.465 Q -175.327 1155.385 -175.768 1155.306 Q -176.209 1155.227 -176.653 1155.149 Q -177.097 1155.072 -177.544 1154.997 Q -177.991 1154.922 -178.441 1154.850 Q -178.892 1154.779 -179.345 1154.711 Q -179.798 1154.643 -180.253 1154.580 Q -180.709 1154.517 -181.167 1154.460 Q -181.625 1154.402 -182.085 1154.351 Q -182.545 1154.299 -183.007 1154.254 Q -183.469 1154.209 -183.933 1154.171 Q -184.396 1154.133 -184.861 1154.103 Q -185.326 1154.072 -185.793 1154.050 Q -186.259 1154.027 -186.727 1154.012 Q -187.194 1153.997 -187.662 1153.990 Q -188.131 1153.983 -188.599 1153.984 Q -189.068 1153.986 -189.537 1153.995 Q -190.006 1154.004 -190.475 1154.023 Q -190.944 1154.043 -191.413 1154.070 Q -191.882 1154.097 -192.351 1154.132 Q -192.819 1154.167 -193.287 1154.210 Q -193.755 1154.253 -194.222 1154.303 Q -194.689 1154.353 -195.155 1154.409 Q -195.621 1154.466 -196.085 1154.529 Q -196.550 1154.592 -197.012 1154.661 Q -197.475 1154.730 -197.936 1154.804 Q -198.397 1154.877 -198.855 1154.956 Q -199.314 1155.034 -199.770 1155.115 Q -200.226 1155.197 -200.680 1155.281 Q -201.134 1155.366 -201.584 1155.452 Q -202.035 1155.539 -202.482 1155.626 Q -202.930 1155.714 -203.374 1155.802 Q -203.818 1155.890 -204.259 1155.977 Q -204.699 1156.064 -205.136 1156.150 Q -205.572 1156.235 -206.004 1156.319 Q -206.437 1156.402 -206.865 1156.482 Q -207.293 1156.562 -207.716 1156.639 Q -208.139 1156.715 -208.558 1156.787 Q -208.976 1156.859 -209.390 1156.925 Q -209.803 1156.992 -210.211 1157.052 Q -210.619 1157.113 -211.022 1157.167 Q -211.424 1157.221 -211.821 1157.268 Q -212.218 1157.314 -212.609 1157.354 Q -213.000 1157.393 -213.385 1157.424 Q -213.769 1157.455 -214.147 1157.477 Q -214.526 1157.500 -214.897 1157.513 Q -215.269 1157.527 -215.634 1157.531 Q -215.999 1157.536 -216.357 1157.531 Q -216.715 1157.526 -217.066 1157.511 Q -217.417 1157.497 -217.760 1157.473 Q -218.104 1157.448 -218.439 1157.414 Q -218.775 1157.380 -219.104 1157.336 Q -219.432 1157.292 -219.752 1157.238 Q -220.073 1157.184 -220.385 1157.121 Q -220.697 1157.057 -221.001 1156.983 Q -221.306 1156.909 -221.601 1156.826 Q -221.897 1156.742 -222.184 1156.649 Q -222.472 1156.556 -222.750 1156.454 Q -223.029 1156.351 -223.299 1156.239 Q -223.569 1156.127 -223.830 1156.005 Q -224.091 1155.884 -224.342 1155.754 Q -224.594 1155.624 -224.837 1155.484 Q -225.080 1155.345 -225.313 1155.197 Q -225.547 1155.050 -225.771 1154.894 Q -225.995 1154.737 -226.209 1154.573 Q -226.424 1154.409 -226.629 1154.237 Q -226.834 1154.064 -227.029 1153.885 Q -227.224 1153.705 -227.409 1153.518 Q -227.595 1153.331 -227.770 1153.136 Q -227.946 1152.942 -228.111 1152.741 Q -228.276 1152.539 -228.432 1152.332 Q -228.587 1152.124 -228.733 1151.910 Q -228.878 1151.696 -229.013 1151.476 Q -229.148 1151.255 -229.273 1151.030 Q -229.397 1150.803 -229.512 1150.572 Q -229.626 1150.340 -229.730 1150.104 Q -229.834 1149.867 -229.928 1149.625 Q -230.022 1149.384 -230.105 1149.137 Q -230.188 1148.891 -230.260 1148.640 Q -230.333 1148.389 -230.395 1148.134 Q -230.457 1147.879 -230.509 1147.620 Q -230.560 1147.361 -230.601 1147.099 Q -230.642 1146.836 -230.672 1146.570 Q -230.702 1146.304 -230.722 1146.035 Q -230.742 1145.765 -230.750 1145.493 Q -230.759 1145.221 -230.758 1144.946 Q -230.756 1144.671 -230.744 1144.394 Q -230.732 1144.117 -230.709 1143.837 Q -230.686 1143.558 -230.652 1143.276 Q -230.619 1142.995 -230.575 1142.711 Q -230.531 1142.428 -230.476 1142.143 Q -230.421 1141.859 -230.356 1141.573 Q -230.291 1141.287 -230.215 1141.000 Q -230.139 1140.712 -230.053 1140.424 Q -229.967 1140.136 -229.871 1139.848 Q -229.774 1139.559 -229.667 1139.270 Q -229.560 1138.981 -229.443 1138.692 Q -229.326 1138.403 -229.198 1138.114 Q -229.071 1137.824 -228.933 1137.535 Q -228.795 1137.247 -228.648 1136.958 Q -228.500 1136.669 -228.342 1136.382 Q -228.184 1136.094 -228.016 1135.807 Q -227.849 1135.520 -227.671 1135.234 Q -227.494 1134.948 -227.306 1134.663 Q -227.119 1134.379 -226.922 1134.095 Q -226.725 1133.812 -226.518 1133.531 Q -226.311 1133.249 -226.095 1132.969 Q -225.879 1132.690 -225.653 1132.412 Q -225.428 1132.135 -225.193 1131.859 Q -224.958 1131.584 -224.715 1131.312 Q -224.471 1131.039 -224.218 1130.769 Q -223.965 1130.498 -223.703 1130.231 Q -223.441 1129.964 -223.171 1129.700 Q -222.900 1129.436 -222.621 1129.175 Q -222.342 1128.914 -222.054 1128.656 Q -221.767 1128.399 -221.470 1128.145 Q -221.174 1127.891 -220.870 1127.641 Q -220.566 1127.391 -220.254 1127.145 Q -219.942 1126.899 -219.621 1126.657 Q -219.301 1126.415 -218.973 1126.178 Q -218.646 1125.940 -218.310 1125.707 Q -217.975 1125.474 -217.632 1125.246 Q -217.289 1125.018 -216.939 1124.794 Q -216.589 1124.570 -216.232 1124.352 Q -215.875 1124.133 -215.511 1123.920 Q -215.147 1123.707 -214.776 1123.499 Q -214.405 1123.291 -214.028 1123.088 Q -213.651 1122.885 -213.267 1122.688 Q -212.883 1122.491 -212.494 1122.299 Q -212.104 1122.107 -211.708 1121.922 Q -211.313 1121.736 -210.911 1121.556 Q -210.510 1121.376 -210.103 1121.203 Q -209.696 1121.029 -209.283 1120.862 Q -208.871 1120.694 -208.454 1120.533 Q -208.036 1120.373 -207.614 1120.218 Q -207.191 1120.063 -206.764 1119.915 Q -206.337 1119.767 -205.906 1119.626 Q -205.474 1119.485 -205.038 1119.351 Q -204.602 1119.216 -204.162 1119.089 Q -203.722 1118.961 -203.278 1118.841 Q -202.835 1118.720 -202.387 1118.607 Q -201.940 1118.493 -201.489 1118.387 Q -201.038 1118.281 -200.584 1118.181 Q -200.130 1118.082 -199.673 1117.991 Q -199.216 1117.899 -198.757 1117.815 Q -198.297 1117.730 -197.835 1117.653 Q -197.373 1117.577 -196.909 1117.507 Q -196.445 1117.438 -195.979 1117.376 Q -195.513 1117.315 -195.045 1117.261 Q -194.577 1117.207 -194.108 1117.161 Q -193.639 1117.114 -193.168 1117.075 Q -192.698 1117.037 -192.227 1117.006 Q -191.755 1116.974 -191.283 1116.951 Q -190.811 1116.928 -190.338 1116.913 Q -189.865 1116.898 -189.393 1116.891 Q -188.920 1116.883 -188.447 1116.884 Q -187.974 1116.885 -187.502 1116.892 Q -187.030 1116.900 -186.558 1116.916 Q -186.086 1116.931 -185.615 1116.955 Q -185.144 1116.979 -184.674 1117.010 Q -184.204 1117.042 -183.735 1117.082 Q -183.267 1117.121 -182.800 1117.169 Q -182.333 1117.216 -181.867 1117.271 Q -181.402 1117.327 -180.939 1117.390 Q -180.476 1117.453 -180.015 1117.524 Q -179.554 1117.594 -179.096 1117.673 Q -178.638 1117.751 -178.182 1117.838 Q -177.727 1117.924 -177.274 1118.018 Q -176.822 1118.111 -176.373 1118.213 Q -175.924 1118.314 -175.478 1118.423 Q -175.032 1118.532 -174.590 1118.648 Q -174.149 1118.764 -173.711 1118.887 Q -173.273 1119.011 -172.839 1119.142 Q -172.406 1119.273 -171.976 1119.411 Q -171.547 1119.548 -171.123 1119.693 Q -170.698 1119.838 -170.278 1119.990 Q -169.859 1120.141 -169.444 1120.300 Q -169.030 1120.458 -168.620 1120.624 Q -168.211 1120.789 -167.807 1120.961 Q -167.403 1121.133 -167.005 1121.311 Q -166.607 1121.489 -166.215 1121.674 Q -165.823 1121.858 -165.437 1122.049 Q -165.051 1122.239 -164.671 1122.436 Q -164.291 1122.632 -163.918 1122.835 Q -163.545 1123.037 -163.178 1123.245 Q -162.812 1123.453 -162.452 1123.667 Q -162.092 1123.881 -161.739 1124.100 Q -161.387 1124.319 -161.041 1124.543 Q -160.695 1124.767 -160.357 1124.996 Q -160.019 1125.225 -159.689 1125.458 Q -159.358 1125.692 -159.035 1125.931 Q -158.712 1126.169 -158.397 1126.412 Q -158.082 1126.655 -157.775 1126.902 Q -157.468 1127.149 -157.169 1127.401 Q -156.870 1127.652 -156.580 1127.907 Q -156.289 1128.162 -156.007 1128.421 Q -155.725 1128.680 -155.451 1128.942 Q -155.178 1129.205 -154.913 1129.470 Q -154.648 1129.736 -154.392 1130.005 Q -154.136 1130.274 -153.889 1130.545 Q -153.642 1130.817 -153.404 1131.091 Q -153.166 1131.365 -152.938 1131.642 Q -152.709 1131.918 -152.489 1132.197 Q -152.270 1132.476 -152.060 1132.757 Q -151.850 1133.038 -151.649 1133.321 Q -151.449 1133.604 -151.258 1133.888 Q -151.067 1134.172 -150.886 1134.458 Q -150.705 1134.744 -150.534 1135.031 Q -150.362 1135.318 -150.201 1135.606 Q -150.039 1135.894 -149.888 1136.182 Q -149.736 1136.471 -149.595 1136.760 Q -149.453 1137.049 -149.322 1137.339 Q -149.190 1137.629 -149.069 1137.918 Q -148.948 1138.208 -148.837 1138.497 Q -148.726 1138.787 -148.625 1139.076 Q -148.524 1139.365 -148.434 1139.654 Q -148.343 1139.942 -148.263 1140.230 Q -148.183 1140.518 -148.113 1140.805 Q -148.044 1141.092 -147.984 1141.378 Q -147.925 1141.663 -147.876 1141.948 Q -147.828 1142.232 -147.789 1142.515 Q -147.751 1142.797 -147.723 1143.078 Q -147.695 1143.359 -147.678 1143.637 Q -147.661 1143.916 -147.654 1144.192 Z"></path>
  </g>
</svg>