<?xml version="1.0" encoding="UTF-8" standalone="yes"?>
<svg xmlns="http://www.w3.org/2000/svg" xmlns:xlink="http://www.w3.org/1999/xlink" width="189.504px" height="183.783px" version="1.1" viewBox="-217.692 942.799 94.752 91.891">
  <!--
	Exported with Concepts: Smarter Sketching
	Version: 2463 on iOS 17.1
	https://concepts.app/
	-->
  <title>C70905A8-DADC-4A52-8E4C-25E8DC22532B</title>
  <desc>Drawing exported from Concepts: Smarter Sketching</desc>
  <defs></defs>
  <g id="新規レイヤー_4" opacity="1.000">
    <path id="STROKE_b669236a-4f43-4dcb-ad2c-1cdc19af5c5e" opacity="1.000" fill="none" stroke="#3298bc" stroke-width="10.524" stroke-opacity="1.000" stroke-linecap="round" stroke-linejoin="round" d="M -138.838 985.606 Q -138.833 986.022 -138.838 986.439 Q -138.843 986.855 -138.856 987.271 Q -138.870 987.687 -138.893 988.103 Q -138.917 988.519 -138.949 988.934 Q -138.981 989.349 -139.023 989.763 Q -139.065 990.178 -139.115 990.591 Q -139.166 991.004 -139.226 991.416 Q -139.286 991.828 -139.355 992.238 Q -139.424 992.649 -139.502 993.057 Q -139.581 993.466 -139.668 993.873 Q -139.755 994.280 -139.851 994.685 Q -139.948 995.089 -140.053 995.492 Q -140.158 995.894 -140.272 996.294 Q -140.386 996.694 -140.509 997.091 Q -140.633 997.488 -140.764 997.882 Q -140.896 998.277 -141.037 998.668 Q -141.177 999.059 -141.326 999.447 Q -141.476 999.835 -141.634 1000.219 Q -141.791 1000.603 -141.958 1000.984 Q -142.124 1001.364 -142.299 1001.741 Q -142.473 1002.117 -142.656 1002.490 Q -142.839 1002.862 -143.031 1003.231 Q -143.222 1003.599 -143.421 1003.962 Q -143.621 1004.326 -143.828 1004.685 Q -144.036 1005.044 -144.251 1005.398 Q -144.466 1005.753 -144.690 1006.102 Q -144.913 1006.451 -145.144 1006.795 Q -145.375 1007.139 -145.613 1007.477 Q -145.851 1007.816 -146.097 1008.149 Q -146.343 1008.482 -146.597 1008.809 Q -146.850 1009.136 -147.110 1009.458 Q -147.371 1009.779 -147.638 1010.094 Q -147.906 1010.409 -148.180 1010.718 Q -148.455 1011.027 -148.736 1011.330 Q -149.018 1011.633 -149.306 1011.929 Q -149.594 1012.225 -149.888 1012.514 Q -150.182 1012.804 -150.483 1013.086 Q -150.784 1013.369 -151.091 1013.644 Q -151.398 1013.920 -151.711 1014.188 Q -152.024 1014.457 -152.343 1014.718 Q -152.662 1014.979 -152.987 1015.233 Q -153.312 1015.487 -153.642 1015.733 Q -153.972 1015.979 -154.308 1016.218 Q -154.643 1016.457 -154.984 1016.688 Q -155.325 1016.918 -155.671 1017.141 Q -156.017 1017.364 -156.367 1017.579 Q -156.718 1017.794 -157.074 1018.001 Q -157.429 1018.208 -157.789 1018.407 Q -158.149 1018.605 -158.513 1018.796 Q -158.878 1018.986 -159.246 1019.168 Q -159.614 1019.350 -159.987 1019.523 Q -160.359 1019.696 -160.735 1019.861 Q -161.111 1020.026 -161.491 1020.182 Q -161.871 1020.338 -162.254 1020.485 Q -162.637 1020.633 -163.023 1020.771 Q -163.409 1020.910 -163.799 1021.039 Q -164.188 1021.169 -164.580 1021.289 Q -164.972 1021.410 -165.366 1021.521 Q -165.761 1021.633 -166.158 1021.735 Q -166.555 1021.838 -166.954 1021.931 Q -167.353 1022.025 -167.754 1022.109 Q -168.155 1022.193 -168.558 1022.268 Q -168.961 1022.343 -169.366 1022.408 Q -169.770 1022.474 -170.176 1022.530 Q -170.582 1022.586 -170.988 1022.633 Q -171.395 1022.680 -171.803 1022.718 Q -172.211 1022.755 -172.620 1022.784 Q -173.028 1022.812 -173.437 1022.831 Q -173.847 1022.849 -174.256 1022.859 Q -174.666 1022.868 -175.075 1022.868 Q -175.485 1022.868 -175.894 1022.859 Q -176.303 1022.849 -176.713 1022.831 Q -177.122 1022.812 -177.530 1022.784 Q -177.939 1022.755 -178.347 1022.718 Q -178.755 1022.680 -179.162 1022.633 Q -179.569 1022.586 -179.974 1022.530 Q -180.380 1022.474 -180.785 1022.408 Q -181.189 1022.343 -181.592 1022.268 Q -181.995 1022.193 -182.396 1022.109 Q -182.797 1022.025 -183.196 1021.931 Q -183.595 1021.838 -183.992 1021.736 Q -184.389 1021.633 -184.784 1021.522 Q -185.178 1021.410 -185.570 1021.289 Q -185.962 1021.169 -186.352 1021.039 Q -186.741 1020.910 -187.127 1020.771 Q -187.513 1020.633 -187.896 1020.485 Q -188.279 1020.338 -188.659 1020.182 Q -189.039 1020.026 -189.415 1019.861 Q -189.791 1019.696 -190.163 1019.523 Q -190.536 1019.350 -190.904 1019.168 Q -191.273 1018.986 -191.637 1018.796 Q -192.001 1018.605 -192.361 1018.407 Q -192.721 1018.208 -193.076 1018.001 Q -193.432 1017.794 -193.783 1017.579 Q -194.133 1017.364 -194.479 1017.141 Q -194.825 1016.918 -195.166 1016.688 Q -195.507 1016.457 -195.843 1016.218 Q -196.178 1015.979 -196.508 1015.733 Q -196.839 1015.487 -197.163 1015.233 Q -197.488 1014.979 -197.807 1014.718 Q -198.126 1014.457 -198.439 1014.189 Q -198.752 1013.920 -199.059 1013.645 Q -199.366 1013.369 -199.667 1013.086 Q -199.968 1012.804 -200.262 1012.514 Q -200.557 1012.225 -200.845 1011.929 Q -201.133 1011.633 -201.414 1011.330 Q -201.695 1011.027 -201.970 1010.718 Q -202.244 1010.409 -202.512 1010.094 Q -202.779 1009.779 -203.040 1009.458 Q -203.300 1009.136 -203.554 1008.809 Q -203.807 1008.482 -204.053 1008.149 Q -204.299 1007.816 -204.537 1007.477 Q -204.776 1007.139 -205.007 1006.795 Q -205.237 1006.451 -205.461 1006.102 Q -205.684 1005.753 -205.899 1005.398 Q -206.115 1005.044 -206.322 1004.685 Q -206.529 1004.326 -206.729 1003.963 Q -206.928 1003.599 -207.120 1003.231 Q -207.311 1002.862 -207.494 1002.490 Q -207.677 1002.117 -207.852 1001.741 Q -208.026 1001.364 -208.193 1000.984 Q -208.359 1000.603 -208.517 1000.219 Q -208.674 999.835 -208.824 999.447 Q -208.973 999.059 -209.113 998.668 Q -209.254 998.277 -209.386 997.883 Q -209.518 997.488 -209.641 997.091 Q -209.764 996.694 -209.878 996.294 Q -209.992 995.894 -210.097 995.492 Q -210.203 995.089 -210.299 994.685 Q -210.395 994.280 -210.482 993.873 Q -210.570 993.466 -210.648 993.057 Q -210.726 992.649 -210.795 992.238 Q -210.864 991.828 -210.924 991.416 Q -210.984 991.004 -211.035 990.591 Q -211.086 990.178 -211.127 989.763 Q -211.169 989.349 -211.201 988.934 Q -211.234 988.519 -211.257 988.103 Q -211.280 987.687 -211.294 987.271 Q -211.308 986.855 -211.312 986.439 Q -211.317 986.022 -211.312 985.606 Q -211.308 985.190 -211.294 984.773 Q -211.280 984.357 -211.257 983.941 Q -211.234 983.526 -211.201 983.111 Q -211.169 982.695 -211.127 982.281 Q -211.086 981.867 -211.035 981.454 Q -210.984 981.041 -210.924 980.629 Q -210.864 980.217 -210.795 979.806 Q -210.726 979.396 -210.648 978.987 Q -210.570 978.579 -210.482 978.172 Q -210.395 977.765 -210.299 977.360 Q -210.203 976.955 -210.097 976.553 Q -209.992 976.151 -209.878 975.751 Q -209.764 975.351 -209.641 974.954 Q -209.518 974.556 -209.386 974.162 Q -209.254 973.768 -209.114 973.377 Q -208.973 972.986 -208.824 972.598 Q -208.675 972.210 -208.517 971.826 Q -208.359 971.442 -208.193 971.061 Q -208.026 970.681 -207.852 970.304 Q -207.677 969.927 -207.494 969.555 Q -207.311 969.182 -207.120 968.814 Q -206.928 968.446 -206.729 968.082 Q -206.529 967.718 -206.322 967.359 Q -206.115 967.000 -205.899 966.646 Q -205.684 966.292 -205.461 965.943 Q -205.238 965.594 -205.007 965.250 Q -204.776 964.906 -204.537 964.567 Q -204.299 964.229 -204.053 963.896 Q -203.807 963.563 -203.554 963.236 Q -203.300 962.908 -203.040 962.587 Q -202.779 962.266 -202.512 961.951 Q -202.244 961.635 -201.970 961.326 Q -201.695 961.017 -201.414 960.715 Q -201.133 960.412 -200.845 960.116 Q -200.557 959.820 -200.262 959.530 Q -199.968 959.241 -199.667 958.958 Q -199.366 958.676 -199.059 958.400 Q -198.752 958.125 -198.439 957.856 Q -198.126 957.588 -197.807 957.327 Q -197.488 957.065 -197.163 956.812 Q -196.839 956.558 -196.508 956.311 Q -196.178 956.065 -195.843 955.827 Q -195.507 955.588 -195.166 955.357 Q -194.825 955.126 -194.479 954.903 Q -194.133 954.680 -193.783 954.465 Q -193.432 954.250 -193.076 954.043 Q -192.721 953.837 -192.361 953.638 Q -192.001 953.439 -191.637 953.249 Q -191.273 953.059 -190.904 952.877 Q -190.536 952.695 -190.163 952.522 Q -189.791 952.348 -189.415 952.183 Q -189.039 952.019 -188.659 951.863 Q -188.279 951.707 -187.896 951.559 Q -187.513 951.412 -187.127 951.273 Q -186.741 951.135 -186.352 951.005 Q -185.962 950.876 -185.570 950.755 Q -185.178 950.635 -184.784 950.523 Q -184.389 950.411 -183.992 950.309 Q -183.595 950.207 -183.196 950.113 Q -182.797 950.020 -182.396 949.936 Q -181.995 949.852 -181.592 949.777 Q -181.189 949.702 -180.785 949.636 Q -180.380 949.571 -179.974 949.515 Q -179.568 949.458 -179.162 949.411 Q -178.755 949.364 -178.347 949.327 Q -177.939 949.289 -177.530 949.261 Q -177.122 949.233 -176.713 949.214 Q -176.303 949.195 -175.894 949.186 Q -175.484 949.176 -175.075 949.176 Q -174.665 949.176 -174.256 949.186 Q -173.846 949.195 -173.437 949.214 Q -173.028 949.233 -172.620 949.261 Q -172.211 949.289 -171.803 949.327 Q -171.395 949.364 -170.988 949.411 Q -170.581 949.458 -170.176 949.515 Q -169.770 949.571 -169.365 949.636 Q -168.961 949.702 -168.558 949.777 Q -168.155 949.852 -167.754 949.936 Q -167.353 950.020 -166.954 950.113 Q -166.555 950.207 -166.158 950.309 Q -165.761 950.412 -165.366 950.523 Q -164.972 950.635 -164.580 950.755 Q -164.188 950.876 -163.798 951.005 Q -163.409 951.135 -163.023 951.274 Q -162.637 951.412 -162.254 951.559 Q -161.870 951.707 -161.491 951.863 Q -161.111 952.019 -160.735 952.184 Q -160.359 952.348 -159.987 952.522 Q -159.614 952.695 -159.246 952.877 Q -158.877 953.059 -158.513 953.249 Q -158.149 953.440 -157.789 953.638 Q -157.429 953.837 -157.073 954.044 Q -156.718 954.251 -156.367 954.466 Q -156.016 954.680 -155.671 954.903 Q -155.325 955.126 -154.984 955.357 Q -154.643 955.588 -154.307 955.827 Q -153.972 956.065 -153.641 956.312 Q -153.311 956.558 -152.987 956.812 Q -152.662 957.066 -152.343 957.327 Q -152.024 957.588 -151.711 957.856 Q -151.398 958.125 -151.091 958.401 Q -150.784 958.676 -150.483 958.959 Q -150.182 959.241 -149.888 959.531 Q -149.593 959.820 -149.305 960.116 Q -149.017 960.412 -148.736 960.715 Q -148.455 961.018 -148.180 961.327 Q -147.906 961.636 -147.638 961.951 Q -147.371 962.266 -147.110 962.588 Q -146.850 962.909 -146.596 963.236 Q -146.343 963.563 -146.097 963.896 Q -145.851 964.229 -145.613 964.568 Q -145.374 964.906 -145.143 965.250 Q -144.912 965.594 -144.689 965.943 Q -144.466 966.292 -144.251 966.647 Q -144.035 967.001 -143.828 967.360 Q -143.620 967.719 -143.421 968.083 Q -143.222 968.446 -143.030 968.815 Q -142.839 969.183 -142.656 969.555 Q -142.473 969.928 -142.298 970.304 Q -142.124 970.681 -141.957 971.062 Q -141.791 971.442 -141.633 971.826 Q -141.476 972.211 -141.326 972.599 Q -141.177 972.986 -141.037 973.377 Q -140.896 973.768 -140.764 974.163 Q -140.632 974.557 -140.509 974.954 Q -140.386 975.351 -140.272 975.751 Q -140.158 976.151 -140.053 976.553 Q -139.947 976.956 -139.851 977.361 Q -139.755 977.765 -139.668 978.172 Q -139.580 978.579 -139.502 978.988 Q -139.424 979.397 -139.355 979.807 Q -139.286 980.218 -139.226 980.629 Q -139.166 981.041 -139.115 981.455 Q -139.064 981.868 -139.023 982.282 Q -138.981 982.696 -138.949 983.111 Q -138.917 983.526 -138.893 983.942 Q -138.870 984.358 -138.856 984.774 Q -138.843 985.190 -138.838 985.606 Z"></path>
    <path id="STROKE_cee7acf0-a1af-4535-b7c1-e48d396d70b7" opacity="1.000" fill="none" stroke="#3298bc" stroke-width="10.894" stroke-opacity="1.000" stroke-linecap="round" stroke-linejoin="round" d="M -129.497 1028.133 L -147.519 1010.819 "></path>
  </g>
</svg>