<svg width="91" height="48" viewBox="0 0 91 48" fill="none" xmlns="http://www.w3.org/2000/svg">
<rect width="91" height="48" rx="24" fill="white"/>
<path d="M22.6667 23.3333C24.258 23.3333 25.7841 23.9655 26.9093 25.0907C28.0345 26.2159 28.6667 27.742 28.6667 29.3333" stroke="#333132" stroke-width="2" stroke-linecap="round" stroke-linejoin="round"/>
<path d="M22.6667 18.6667C25.4957 18.6667 28.2088 19.7905 30.2092 21.7909C32.2095 23.7913 33.3334 26.5044 33.3334 29.3334" stroke="#333132" stroke-width="2" stroke-linecap="round" stroke-linejoin="round"/>
<path d="M23.3334 29.3333C23.7015 29.3333 24 29.0349 24 28.6667C24 28.2985 23.7015 28 23.3334 28C22.9652 28 22.6667 28.2985 22.6667 28.6667C22.6667 29.0349 22.9652 29.3333 23.3334 29.3333Z" stroke="#333132" stroke-width="2" stroke-linecap="round" stroke-linejoin="round"/>
<path d="M42.048 29.5C41.44 29.5 41.136 29.1853 41.136 28.556V19.244C41.136 18.6147 41.4507 18.3 42.08 18.3H46.256C47.3013 18.3 48.128 18.5453 48.736 19.036C49.3547 19.5267 49.664 20.3533 49.664 21.516C49.664 22.4973 49.44 23.244 48.992 23.756C48.544 24.2573 47.9253 24.5667 47.136 24.684L48.976 28.38C49.136 28.7107 49.168 28.9827 49.072 29.196C48.976 29.3987 48.7733 29.5 48.464 29.5H48.16C47.6267 29.5 47.2587 29.26 47.056 28.78L45.216 24.764H42.976V28.556C42.976 29.1853 42.6667 29.5 42.048 29.5ZM42.976 23.036H46C46.544 23.036 46.9653 22.9187 47.264 22.684C47.5627 22.4493 47.712 22.06 47.712 21.516C47.712 20.9827 47.5627 20.5987 47.264 20.364C46.9653 20.1293 46.544 20.012 46 20.012H42.976V23.036ZM55.434 29.724C54.6447 29.724 53.9087 29.5907 53.226 29.324C52.5433 29.0467 51.9567 28.588 51.466 27.948C51.2847 27.692 51.2207 27.4573 51.274 27.244C51.338 27.02 51.498 26.8387 51.754 26.7C51.9993 26.5507 52.2233 26.508 52.426 26.572C52.6287 26.6253 52.8313 26.764 53.034 26.988C53.322 27.2973 53.6633 27.5373 54.058 27.708C54.4633 27.8787 54.9433 27.964 55.498 27.964C56.2447 27.964 56.7673 27.8307 57.066 27.564C57.3753 27.2867 57.53 26.9133 57.53 26.444C57.53 26.1453 57.4607 25.8893 57.322 25.676C57.194 25.4627 56.9167 25.2653 56.49 25.084C56.074 24.892 55.4287 24.7 54.554 24.508C53.5193 24.2627 52.7513 23.8733 52.25 23.34C51.7593 22.8067 51.514 22.1293 51.514 21.308C51.514 20.6573 51.6687 20.0867 51.978 19.596C52.298 19.0947 52.7407 18.7053 53.306 18.428C53.882 18.1507 54.554 18.012 55.322 18.012C56.122 18.012 56.8207 18.1507 57.418 18.428C58.0153 18.7053 58.5167 19.0627 58.922 19.5C59.1247 19.724 59.2047 19.948 59.162 20.172C59.1193 20.396 58.9807 20.5987 58.746 20.78C58.5113 20.972 58.2873 21.0467 58.074 21.004C57.8607 20.9613 57.6473 20.8387 57.434 20.636C57.1673 20.3907 56.8633 20.188 56.522 20.028C56.1807 19.868 55.7753 19.788 55.306 19.788C54.7513 19.788 54.298 19.9107 53.946 20.156C53.6047 20.3907 53.434 20.748 53.434 21.228C53.434 21.4413 53.482 21.6493 53.578 21.852C53.6847 22.044 53.9087 22.2307 54.25 22.412C54.602 22.5933 55.1407 22.7693 55.866 22.94C57.146 23.228 58.0687 23.66 58.634 24.236C59.1993 24.812 59.482 25.5373 59.482 26.412C59.482 27.4787 59.1087 28.3 58.362 28.876C57.626 29.4413 56.65 29.724 55.434 29.724ZM65.4184 29.724C64.629 29.724 63.893 29.5907 63.2104 29.324C62.5277 29.0467 61.941 28.588 61.4504 27.948C61.269 27.692 61.205 27.4573 61.2584 27.244C61.3224 27.02 61.4824 26.8387 61.7384 26.7C61.9837 26.5507 62.2077 26.508 62.4104 26.572C62.613 26.6253 62.8157 26.764 63.0184 26.988C63.3064 27.2973 63.6477 27.5373 64.0424 27.708C64.4477 27.8787 64.9277 27.964 65.4824 27.964C66.229 27.964 66.7517 27.8307 67.0504 27.564C67.3597 27.2867 67.5144 26.9133 67.5144 26.444C67.5144 26.1453 67.445 25.8893 67.3064 25.676C67.1784 25.4627 66.901 25.2653 66.4744 25.084C66.0584 24.892 65.413 24.7 64.5384 24.508C63.5037 24.2627 62.7357 23.8733 62.2344 23.34C61.7437 22.8067 61.4984 22.1293 61.4984 21.308C61.4984 20.6573 61.653 20.0867 61.9624 19.596C62.2824 19.0947 62.725 18.7053 63.2904 18.428C63.8664 18.1507 64.5384 18.012 65.3064 18.012C66.1064 18.012 66.805 18.1507 67.4024 18.428C67.9997 18.7053 68.501 19.0627 68.9064 19.5C69.109 19.724 69.189 19.948 69.1464 20.172C69.1037 20.396 68.965 20.5987 68.7304 20.78C68.4957 20.972 68.2717 21.0467 68.0584 21.004C67.845 20.9613 67.6317 20.8387 67.4184 20.636C67.1517 20.3907 66.8477 20.188 66.5064 20.028C66.165 19.868 65.7597 19.788 65.2904 19.788C64.7357 19.788 64.2824 19.9107 63.9304 20.156C63.589 20.3907 63.4184 20.748 63.4184 21.228C63.4184 21.4413 63.4664 21.6493 63.5624 21.852C63.669 22.044 63.893 22.2307 64.2344 22.412C64.5864 22.5933 65.125 22.7693 65.8504 22.94C67.1304 23.228 68.053 23.66 68.6184 24.236C69.1837 24.812 69.4664 25.5373 69.4664 26.412C69.4664 27.4787 69.093 28.3 68.3464 28.876C67.6104 29.4413 66.6344 29.724 65.4184 29.724Z" fill="#008DB7"/>
</svg>
